/* XPM */
static char *result[] = {
/* columns rows colors chars-per-pixel */
"50 31 244 2 ",
"   c #010002",
".  c #03040C",
"X  c #09090E",
"o  c #07080C",
"O  c #040614",
"+  c #060A13",
"@  c #0B0D14",
"#  c #030B1D",
"$  c #0B0D1B",
"%  c #090515",
"&  c #0D111C",
"*  c #0F1015",
"=  c #12141C",
"-  c #030E23",
";  c #0E0E22",
":  c #0D082B",
">  c #100F26",
",  c #110F29",
"<  c #0D1323",
"1  c #02122C",
"2  c #0E1629",
"3  c #0D192B",
"4  c #001327",
"5  c #121623",
"6  c #131826",
"7  c #12142B",
"8  c #131B2C",
"9  c #181C2F",
"0  c #150B34",
"q  c #140D39",
"w  c #0E1C33",
"e  c #0D123A",
"r  c #151432",
"t  c #191435",
"y  c #131D33",
"u  c #1A1C33",
"i  c #1B133A",
"p  c #1C1B3C",
"a  c #151A3B",
"s  c #0D0C3A",
"d  c #24153B",
"f  c #231C3E",
"g  c #152135",
"h  c #1A2235",
"j  c #15233C",
"k  c #1A233B",
"l  c #1A293E",
"z  c #22213E",
"x  c #150D48",
"c  c #1D1542",
"v  c #181748",
"b  c #110E55",
"n  c #1A1759",
"m  c #0F1145",
"M  c #2C1B45",
"N  c #231748",
"B  c #35194C",
"V  c #331847",
"C  c #261A54",
"Z  c #291B54",
"A  c #2C1C5D",
"S  c #28175A",
"D  c #361C51",
"F  c #3B1B58",
"G  c #152542",
"H  c #1A2543",
"J  c #1B2A44",
"K  c #1B2B4A",
"L  c #182849",
"P  c #1B2955",
"I  c #1D3254",
"U  c #1F325D",
"Y  c #1F304D",
"T  c #212C43",
"R  c #2B234B",
"E  c #242C4D",
"W  c #252548",
"Q  c #31244E",
"!  c #21314D",
"~  c #242C52",
"^  c #282859",
"/  c #3E235B",
"(  c #332B5C",
")  c #372658",
"_  c #243353",
"`  c #23355D",
"'  c #2B365A",
"]  c #1D1A67",
"[  c #17136A",
"{  c #241364",
"}  c #2D1B61",
"|  c #22166E",
" . c #2D1A6C",
".. c #26186A",
"X. c #341A6A",
"o. c #291C76",
"O. c #341D74",
"+. c #3A1C75",
"@. c #39197A",
"#. c #1C2C61",
"$. c #1E3464",
"%. c #2D2164",
"&. c #272A66",
"*. c #322B6D",
"=. c #372967",
"-. c #233567",
";. c #2A2678",
":. c #332572",
">. c #3C2275",
",. c #33237C",
"<. c #332C7B",
"1. c #3A2778",
"2. c #2C3779",
"3. c #353476",
"4. c #303660",
"5. c #431E59",
"6. c #44215D",
"7. c #7F315F",
"8. c #471D65",
"9. c #591D79",
"0. c #4A1A79",
"q. c #4C246B",
"w. c #432666",
"e. c #502367",
"r. c #42237E",
"t. c #4A2975",
"y. c #592679",
"u. c #4D3179",
"i. c #682B6E",
"p. c #7D3479",
"a. c #763066",
"s. c #3A475F",
"d. c #34486D",
"f. c #475774",
"g. c #8D435B",
"h. c #D18469",
"j. c #FFDE72",
"k. c #2E1C83",
"l. c #3A1C88",
"z. c #391392",
"x. c #1E2C8F",
"c. c #2B2887",
"v. c #3D2282",
"b. c #362789",
"n. c #26328E",
"m. c #363685",
"M. c #382893",
"N. c #383699",
"B. c #292D98",
"V. c #293AA5",
"C. c #3A38A4",
"Z. c #471D8C",
"A. c #591E9F",
"S. c #432384",
"D. c #452B8B",
"F. c #4D2A8E",
"G. c #472689",
"H. c #433686",
"J. c #4C2393",
"K. c #4D2A92",
"L. c #482B98",
"P. c #562C98",
"I. c #473698",
"U. c #55329C",
"Y. c #56379A",
"T. c #543084",
"R. c #603487",
"E. c #6A2894",
"W. c #722799",
"Q. c #693599",
"!. c #6B2E90",
"~. c #4727A2",
"^. c #572AA5",
"/. c #5837A5",
"(. c #5531B2",
"). c #6436A7",
"_. c #7A34A7",
"`. c #713BB3",
"'. c #6C30AB",
"]. c #4B19A5",
"[. c #384599",
"{. c #314286",
"}. c #2B45A7",
"|. c #3C45A5",
" X c #3A47AB",
".X c #3948B6",
"XX c #3E58BA",
"oX c #2250B6",
"OX c #3C67BB",
"+X c #2F68B4",
"@X c #4C4A9B",
"#X c #484AA7",
"$X c #5748A9",
"%X c #4658AE",
"&X c #4A48B6",
"*X c #4658B8",
"=X c #5456B6",
"-X c #544DB2",
";X c #644AB5",
":X c #7648B9",
">X c #7953BD",
",X c #7048AB",
"<X c #4966BB",
"1X c #723FC1",
"2X c #325CC6",
"3X c #1B66C5",
"4X c #2564C8",
"5X c #376DC5",
"6X c #2A77C6",
"7X c #3B79CB",
"8X c #297AD3",
"9X c #7D55C3",
"0X c #4978C6",
"qX c #567AC8",
"wX c #466BCB",
"eX c #862A9E",
"rX c #9138AD",
"tX c #AC5897",
"yX c #8540B7",
"uX c #A758B3",
"iX c #8C4FC5",
"pX c #A14EC4",
"aX c #9468CF",
"sX c #AC7BCB",
"dX c #AD6FD5",
"fX c #3F83BF",
"gX c #2686D5",
"hX c #3491D0",
"jX c #38A8D8",
"kX c #3FBBE5",
"lX c #4A85C7",
"zX c #518FD1",
"xX c #61ACDA",
"cX c #5AB5E4",
"vX c #61B0E5",
"bX c #7589CF",
"nX c #E7B0AC",
"mX c #D58B8A",
"MX c #F4D5A7",
"NX c #A28FD7",
"BX c #C38BCA",
"VX c #DCA8D4",
"CX c #C0D3ED",
"ZX c #A3D4E9",
/* pixels */
"o o o X X + & 5 g _ d.d.` $.-.-.{.#.2.m.;.c.N.&X&XM.&XN.M.k.l.I.b.:.*.*.m.1.Q Q Q R E h 9 6 6 = = = ",
"o o X X @ & & 6 j s.d.` $.$.2.-.2.{.[.#XN.c.N. X}.B.}..X2XC.V.B.b.B.M.I.1.1.( ) ( E ~ z 9 6 6 = = = ",
"o o X + @ @ < 9 J -.U $.$.2.m.m.m.b.#X*X2X*X XXX4XgX+X3X4X4X5XV.x.(.M.b.:.v.r.=.R R 4.' T h 9 6 = = ",
"o o + + $ & & g Y ` U -.` 2.m.<.N.C.2X5XzX0X7X+XkXkXgXgX8X8XgX4X2XV.C.#X-X/.S.:.( W f ~ _ z 9 6 6 = ",
"X + + + $ & 8 j G I -.$.&.<.;.;. X5X8XzXcXhXjXlXOXhXhX6XgXjXgX3XoX}.5XhX&X9X(.b.4.W z E E T h 6 9 = ",
"X + # & @ < g j L U -.m.;.;.[.=XwXcXZXbXxXlX%Xc.;.;.n.}.*XOXgXgXlXlXOXOXc.(. .,.^ E R ~ _ E J 8 9 6 ",
"+ @ & & & < g J P $.2.<.@X@X<X0XvXCXNXwXV.c.n m v n n ] n ] OXzXlXlXzXqXI.C.~.;.*.^ _ ' ' ' J k 9 = ",
"@ # & & & 3 j J L -.3.m.$X*X*XwXqX&XB.[ b b m e w b n e : &.[.OXhX0Xu.qX2X&X/...*.^ 4._ ' _ J I T 9 ",
"@ & & & 2 y y G P P *.<.:.M.5XOX.X| | | [ k.0 o . . O q o.] v v }.%X@XlX<XN.M.;.&.4.H J l K J I Y g ",
"@ # & 3 3 y j L P &.Y.@.{ N.&XXXB.x q k.M.:   .           m x q %.%XlX<X@X,.o.{ ^ ^ _ _ I J j K J w ",
"+ & < 3 w w G I ^ ^ Y.H.I.I.%X|.I.q : | { %                 {  .m.[.|.*XC.B.c.] P a _ _ g T G j l w ",
"< 3 8 4 3 G K ^ 4.=.T.,XK.#X*Xc.1.0 x 0 0                   ; @.} c.[.}.%XN.c.#.P G _ ! j J l g w 3 ",
"3 3 3 < 3 G ~ ^ ( T.G.S.K.-XI.B.o.x n % 0                     >. .:.N.N.<XN.o.#.P H p K K l g y 6 = ",
"& & 8 w L L ~ 4.w.Y.Q.:XY.#XN.M. .| n   %                     >.,.} N. X=XM.] n v H a _ I l j g 3 5 ",
"6 < w j L J I =.u.q.T.,X>X;XI.L.{ ] q                         Z O.*.=X=X;Xc.o.A ^ v y K I J l l 3 = ",
"< < g j w G ^ =.R.!.E.).aXaX/.v. .S v       .   .     .   .   } ,.t.$XI.Y.D.} %.H k j a j G l j 6 = ",
"< < 8 j 9 z Q u.R.E.E.'.`.>X;XJ.O.| &.    . . . . . O O . O . Z.+.>.D.L.D.O.A v H j y J J K j g 5 5 ",
"2 < 2 8 g z Q y.9.0.W.rXiX).).J.O.S b.i   O O O O O O O O O c ^.X.O.L.Y.X.S } i 9 a J I Y l w 8 2 & ",
"2 2 < 7 9 R 6.t.9.T.W.pXaXaX^.).S. .b.L.; . # # - - - - - 1 /.Z.{  ./.H.N c %.r 8 v G K l g g 8 5 & ",
"< 2 2 8 9 R ) 6.5.9.W.pXBXdX`.).P.l.{ ~.I.v # - 1 1 1 4 a /.'.o.1.r.Y.S.q A Z 2 8 a G G l g 3 8 5 & ",
"2 < 6 y z ) V 6.9.9.W.pXVXdXiX`.^.P.,...l.9X@X&.P L &.u.9X(.z.J.K.$XY.=.i } v t 2 y j k z h 9 6 < & ",
"2 < 5 9 T w.6.6.8.W.eXuXnXBXdXsXP./.U.G.k.].~.9X9XiX1X(.].J.).U.Y.;XF.N ^ ^ t 7 2 2 J T h 8 6 6 & & ",
"2 2 7 u Q ( 6.w.y.W.rXnXMXeX_.'.J.J.+.G./.v.@.J.~.^.A.z.J.Y.F.F.K.D.C N Z t 7 2 2 G ! ! h 8 6 = * @ ",
"< < y W ( ) w.q.y.E.tXj.mXeX'.@.@.P.F.Z.l.l.l.Z.L.P.J.Z.J.F.@.S.X.N N N 7 & 7 2 w G j J h 6 = = * * ",
"$ < p W Q ) 6.w.e.y.g.h.tX_.Z.@.r.X.S r.G.@.F.K.K.G.G.J.Y.O.S  .C c v r < 7 8 < g J J g 8 6 5 = * X ",
"$ 9 W u W ( 6.t.y.7.7.p.T.0.X.0.r.0.} r.r.@.r.S.1.t.X.:.%.S %.A A c r 7 2 7 8 g g j l g 6 = = * * X ",
"< 5 u u M Q ) 6.e.p.i.8.5.B S S Z } } X.=.+.X.Z A A S C C %.Z d i t 7 < < 2 a K l j g 6 5 & * * X X ",
"; 7 r N R V V / e.i.5.B V d 0 d i i q i N Z C Z C c i c i 0 ; 5 ; < ; < ; 3 j j K j 8 5 & & * * X X ",
"& 7 u f f V d D q.5.V B d i t r N d c Z N c c i t 0 , , 7 ; $ $ $ $ # < 3 8 l T J l 6 = & * @ X X X ",
"& < t d d V B 6.q.B 5.F d N M f t r i 7 > ; > > 7 r , 7 > $ % $ < & 3 w g j s.d.T h 6 = @ * X X X X ",
"; < t f d M D 6.F D D M ) ) ^ i r ; $ ; ; ; $ $ $ > > $ $ @ $ ; 3 3 j I Y _ f.s.h 6 6 & * * X X X o "
};
