/* XPM */
static char *_7d3372f53a746079b078457c003060baSOKIkgh5EunJa0S[] = {
/* columns rows colors chars-per-pixel */
"98 98 78 1 ",
"  c #3E444E",
". c #414751",
"X c #434A55",
"o c #464D59",
"O c #484F5B",
"+ c #4A515E",
"@ c #4E5462",
"# c #505765",
"$ c #515867",
"% c #555C6B",
"& c #585F6F",
"* c #585F70",
"= c #59616F",
"- c #5B6271",
"; c #5F6778",
": c #606778",
"> c #656C7B",
", c #696F7F",
"< c #69707F",
"1 c #686F81",
"2 c #6A7181",
"3 c #6F7589",
"4 c #707787",
"5 c #717887",
"6 c #707788",
"7 c #737A8A",
"8 c #787E8F",
"9 c #767D91",
"0 c #7E8496",
"q c #7E8499",
"w c #808597",
"e c #81879A",
"r c #83899B",
"t c #868CA1",
"y c #898FA1",
"u c #8D93A6",
"i c #8D93AA",
"p c #9197AC",
"a c #959AAD",
"s c #969CB4",
"d c #999FB4",
"f c #9A9FB8",
"g c #9BA0B4",
"h c #9EA3B8",
"j c #A1A6BE",
"k c #A5AABF",
"l c #A6ABC1",
"z c #A6ACC2",
"x c #A8ADC3",
"c c #AAAFC5",
"v c #A9AEC9",
"b c #ABB1C6",
"n c #ACB1C6",
"m c #ABB0CA",
"M c #ADB2CB",
"N c #AFB4C9",
"B c #AEB3CD",
"V c #B1B6CB",
"C c #B1B6CC",
"Z c #B3B7CD",
"A c #B3B8CE",
"S c #B4B8CE",
"D c #B2B7D1",
"F c #B3B8D0",
"G c #B5B9D0",
"H c #B7BCD2",
"J c #B7BBD5",
"K c #B7BCD5",
"L c #B8BDD3",
"P c #BABED5",
"I c #BABED8",
"U c #BBC0D7",
"Y c #BCC0D7",
"T c #BBC0D9",
"R c #BDC2D9",
"E c #BFC4DA",
"W c #C0C5DC",
"Q c #C1C5DD",
/* pixels */
"@-29000000000000000000000000000000000000000000092-++O@;39000w0000000000000000000000000000000000000",
".+$------=----=-----------=-----------=---------$O   .+&==----==---------===----------=-----------",
"X@&;>>>>>>>>>>>>>>>>>>>>>>>>>>>>>>>>>>>>>>>>>>:;&+...X@-;>>>>>>>>>>>>>>>>>>>>>>>>>>>>>>>>>>>>>>>>>",
"O$;234554466666666666666666666666666664445556321;#XXXO&>236655444466636666666666666666666666665555",
"@-200errrrrrrrrrrrrrrrrrrrrrrrrrrrrrrrrrrrrrre092-+++@;390rrrrrrrrrrrrrrrrrrrrrrrrrrrrrrrrrrrrrrrr",
"-3rsfhhhhhhhhhhhhhhhhhhhhhhhhhhhhhhhhhhhhhhhhhspe2&%$-7ypfhhhhhhhhhhhhhhhhhhhhhhhhhhhhhhhhhhhhhhhh",
"1qfBFLPPPPPPPLPPPPPPPPPPPPPPPPPPPPPPPLLPPPPPPHCms0>;;1tjMFPPPPPPPPPPPPPPPPPPPPPPPPPPPPPPPPPPPPPPPP",
"3tlITRRRRRRRRRRRRRRRRRRRRRRRRRRRRRRRRRRRRRRRRRPKjr>>>3iMJIRRERRRRRRRRRRRRRRRRRRRRRRRRRRRRRRRRRRRRR",
"6uxRPLHHLLLLLLLLLLLLLLLLLLLLLLLLLLLLLLHHHLLLLLPPzt>>>6pCPPLLLHHHHHLLLLLLLLLLLLLLLLLLLLLLLLLLLLLHHG",
"5unQPAVVCCCCCCCCCCCCCCCCCCCCCCCCCCCCCCCCCVVVVAPEbu2>>5aLYGCCVVVCCCCCCCCCCCCCCCCCCCCCCCCCCCCCCCCVVN",
"5unQPAVCCCCCCCCCCCCCCCCCCCCCCCCCCCCCCCCCCCCCCAPRbu2>>5aLYGCCCCCCCCCCCCCCCCCCCCCCCCCCCCCCCCCCCCCCVV",
"5unQPSCCCCCCCCCCCCCCCCCCCCCCCCCCCCCCCCCCCCCCCSPRbu2>>5aLYHAACCCCCCCCCCCCCCCCCCCCCCCCCCCCCCCCCCCCCV",
"5unQPGCCAAAAAAAAAAAAAAAAAAAAAAAAAAAAAAAAAAAAAGPRby2>>5aLUHSSAAAAAAAAAAAAAAAAAAAAAAAAAAAAAAAAAAACCC",
"5unQPSCCAAAAASSSSSSSSSSSSSSSSSSSSSSSSSAAAAAAASPRby<>>5aHUHSSAAAAAASSSSSSSSSSSSSSSSSSSSSSSSAAAAACCC",
"5ubQPSCCAAAASSSSSSSSSSSSSSSSGSSSSSSSSSSAAAAAASPRcy<>>5aHUHSSAAAAASSSSSSSSSSSGSSSSSSSSSSSSSSAAAACCC",
"5ubQPSCCAAAASSSSSSSSSSSSSSSSGSSSSSSSSSSAAAAAASPRcy<>>5aHUHSSAAAASSSSSSSSSSSSGSSSSSSSSSSSSSSSAAACCC",
"5unQPGCCAASSSSSSSSSSSSSSSSSSSSSSSSSSSSSSSAAAASPRcy<>>5aHUHSSAAASSSGSSSGGSSSSSSSSSSSSSSSSSSSSSAACCC",
"5unQPSCCAASSSSSSSSGGSSSSSSSSGSSSSSSSSSSSSAAAASPRcy2>>5aLUHSSAASSSSGSSSSSSSSSSSSSSSSSSSSSSSSSSSACCC",
"5ubQPSCCAASSSSSSSSSSGSSSSSGGGSSSSSSSSSSSSAAAASPRcy2>>5aLUHSSAASSSSSSSSSSSSSSSSSSSSGGSSSSSSSSSSACCC",
"5ubQPSCCAASSSSSSSSSSGSSSSSSSSSSSSSGSSSSSSAAAASPRcy2>>5aLUHSSAASSSSSSSSSSSSSSSGGSSSSSSSGGSSSSGSACCC",
"5ubQPSCCAASSGGSSSSSSSSSSSSSSSSSSSGGSSSSSSAAAASPRcy2>>5aLUHSSAASSGGSSSGSSGSSSSGSSSSGSSSSSSSSSGSACCC",
"5ubQPSCCAASSSGSSSSSSSSSSSSSSSSSSSGSSSSSSSAAAASPRcy2>>5aLUHSSAASSSSSSSSSSSSSSSGSSSSSSSSSSSSSSSSACCC",
"5ubQPGCCAASSSSSSSSSSSSSSSSSSSSSSSSSSSSSSSAAAASPRcy2>>5aLUHSSAASSSSSSSSSSSSSSSSSSSSSSSSSSGSSSSSACCC",
"5ubQPGCCAASSSSSSSSGGSSSSSSSGSSSSSSSSSSSSSAAAASPRcy2>>5aLUHSSAASSSSSSSSSSSSSSSSSSSSSSSSSSGSSSSSACCC",
"5ubQPGCCAASSSSSSSSSSSSSSSSSSSSSGSSSSSSSSSAAAASPRcy2>>5aLUHSSAASSSSSSSSSSSSSSSSSSSSSSSSSSSSSGGSACCC",
"5ubQPGCCAASSSSSSSGSSSGSSSSSSSSSGSSSSSSGGSAAAASPRcy2>>5aLUHSSAASSSSSSSSSSSSSSSSSSSSSSSSGSSSSSSSACCC",
"5ubQPGCCAASSSGSSSSSSSGSSSSSGSSSSSSSSSSSSSAAAASPRcy2>>5aLUHSSAASSGSSSSGGSSSSSSSSSSSSSSSGSSSSSSSACCC",
"5ubQPGCCAASSSSSSSSSSSSSSSSSSSSSSGSSSSSSSSAAAASPRcy2>>5aLUHSSAASSGSSSSSSSSSSSGGSSGGSSSSSSSSSSSSACCC",
"5unQPSCCAASSSSSSSSSSSSSSSSSSSSSSGSSSSSSSSAAAASPRcy2>>5aLUHSSAASSSSSSSSSSGSSSSSGSSSSSSSSSSSSSGSACCC",
"5unQPSCCAASSSSSSGSSSSSSSSSSSSSGGGSSSSSSSSAAAASPRcy2>>5aLUHSSAASSSSSSSSSSGSSSSSGSGSSSSSSSSSSSGSACCC",
"5ubQPSCCAASSSSSSGSSSSSSSSSSGSSSSSSSSSSGGSAAAASPRcy2>>5aLUHSSAASSSSSSSSGSSSSSSSSSSSSSSSSGSSSSSSACCC",
"5ubQPSCCAASSSSSSSSSSGGSSSSSGSSSSSSSSSSSSSAAAASPRcy2>>5aLUHSSAASSSGGSSSSSSSSSSSSSSSSSSSSGSSSSGSACCC",
"5ubQPGCCAASSSSSGSSSSSSSSSGSSSSGSSSSSSSSSSAAAASPRcy2>>5aLUHSSAASSSGSSSSSSSSSSSSSSSSSSSSSGSSSSSSACCC",
"5ubQPGCCAASSSSGSSSSSSSSSSSSSSGGSSSSGSSSSSAAAASPRcy2>>5aLUHSSAASSSSSSSSGGSSSSSSSSGSSSSSSGGSSGSSACCC",
"5ubQPGCCAASSSSSSSSSSSSSSSSSSSSSSSSSSGGSSSAAAASPRcy2>>5aLUHSSAASSSSSSSSSSGSSSSSGSGSSSSSSSSSSSSSACCC",
"5ubQPGCCAASSSSSSSSSSGGSSSSSSSSSSSSSSSSSSSAAAASPRcy2>>5aLUHSSAASSSSSSSSSSGSSSSSSSSSSSSSSSSSSSSSACCC",
"5ubQPSCCAASSSSSSGSSSSSGSSSSSSSSSSSSSSSSSSAAAASPRcy2>>5aLUHSSAASSGSSSSSSSSSSSGGSSSGSSSSSSSSSSSSACCC",
"5ubQPSCCAASSSSSSSSSSSSGSSSSSSSSSSSSSSSSSSAAAASPRcy2>>5aLUHSSAASSGGSSSSGSSSSSSSSSSSSSSSGSSSSSSSACCC",
"5ubQPSCCAASSSSSSSSSSSSSSSSSSSSSSSSSSSSSSSAAAASPRcy2>>5aLUHSSAASSSSSSSSSSSSSSSSSSSSSSSSGSSSSSSSACCC",
"5ubQPSCCAASSSSSSSSSSSSSSSSGGGSSSSSSGGSSSSAAAASPRcy2>>5aLUHSSAASSSSSSSSSSSSSSSSSSSSSSSSSSSSSSSSACCC",
"5ubQPGCCAASSSSSSSGSSSGGSSSSSSSSSSSSSSSSSSAAAASPRcy2>>5aLUHSSAASSSSSSSSSSSSSSSSSSSSSSSSSSSSSSSSACCC",
"5ubQPSCCAASSSSSSSGSSSSSSSSSSSSSSGGSSSSSSSAAAASPRcy<>>5aHPHSSAAASSSSSSSSSSSSSSSSSSSSSSSSSSSSSSAACCC",
"5ubQPSCCAAASSSSSSSSSSSSSSSSSSSSSSSSSSSSSAAAAASPRcy<>>5aGPHSSAAAASSSSSSSSSSSSSSSSSSSSSSSSSSSSAAACCC",
"5ubQPSCCAAAASSSSSSSSSSSSSSSSSSSSSSSSSSSAAAAAASPRcy<>>5aGPHSSAAAAASSSSSSSSSSSSSSSSSGGSSSSSSSAAAACCC",
"5unQPSCCAAAAASSSSSSSSSSSSSSSSSSSSSSSSSAAAACAASPRby2>>5aHUHSAAAAAASSSSSSSSSSSSSSSSSSSSSSSSSSAAAACCC",
"5unQPSCCAAAAAAAAAAAAAAAAAAAAAAAAAAAAAAAAACCCASPEbu2>>5aLYLSACCCAAAAAAAAAAAAAAAAAAAAAAAAAAAAAAAACCV",
"7unQPSCCAAAAAAAAAAAAAAAAAAAAAAAAAAAAAAAAACCCAGPQnu2>>5aPRLSACCAAAAAAAAAAAAAAAAAAAAAAAAAAAAAAAAACCV",
"5unQPSCASSSSSSSSSSSSSSSSSSSSSSSSSSSSSSSSAAAAAGPEbu2>>5aLYLSSAAASSSSSSSSSSSSSSSSSSSSSSSSSSSSSSSSACC",
"5ubQPGAASSSSSSSSSSSSSSSSSSSSSSSSSSSSSSSSSSSSSGPRby<>>5aHTHGSSSSSSSSSSSSSSSSSSSSSSSSSSSSSSSSSSSSSCC",
"4uzRPHGGHHGGGGGGGGGGGGGGGGGGGGGGGGGGGGGGGHHHHHPPlr>>>4pCKHHHHHGGGGGGGGGGGGGGGGGGGGGGGGGGGGGGGGHGGG",
"2rhJKPPPUPPPPUPPPPPPPPUPUUPPPPPPPPPPPPPPPPYUPPGDhe>>>2uxDHPUUUPPPPPPPPUPUUPPPPPPPPPPPPPPPPPPPPPPPP",
"1qsBFPRRRRRRRRRRRRRRRRRRRRRRRRRRRRRRRRRRRRRRRPDvs0:;;1rhmGRRRRRYYRRRRRRRRRRRRRRRRRRRRRRRRRRRRRRRRR",
"-2qiadggggggggggggggggggggggggggggggggfffggggdpiq1%$$-3tiagggggdddgggggggggggggggggggggggggggggggg",
"+&>778888888888888888888888888888888888888888853>%Ooo@-2678888888888888888888888888888888888888888",
"X@*>>>>>>>>>>>>>>>>>>>>>>>>>>>>>>>>>>>>>>>>>>>>;&@...X#-;>>>>>>>>>>>>>>>>>>>>>>>>>>>>>>>>>>>>>>>>>",
"X@->>>>>>>>>>>>>>>>>>>>>>>>>>>>>>>>>>>>>>>>>>>>>*@...X$;>>>>>>>>>>>>>>>>>>>>>>>>>>>>>>>>>>>>>>>>>>",
"o#->>,<222<,,,,,,,,,,,,,,,,,,,,,,,,,,,,,<222<,>>-@X..o$;>>,<22<,,,,,,,,,,,,,,,,,,,,,,,,,,,,,,<<<<<",
"#;30qrrrrrrrrrrrrrrrrrrrrrrrrrrrrrrrrrrrrrrrrrq02-@++#>70qrrrrrrrrrrrrrrrrrrrrrrrrrrrrrrrrrrrrrrrr",
";5tfhkkllkkkkkkkkkkkkkkkkkkkkkkkkkkkkkkkkklkkkhst3&&&;9ishkkzlkkkkkkkkkkkkkkkkkkkkkkkkkkkkkkkkkkkk",
"2rhDPRQQQEEEEEEEEEEEEEEEEEEEEEEEEEEEEERRRQQQERJBfq>>;2tlBPEQQQQRREEEEEEEEEEEEEEEEEEEEEEEEEEEEEQQQQ",
"3tkPPPPPPPPPPPPPPPPPPPPPPPPPPPPPPPPPPPPPPPPPPPKGjr>>>3umGPPPUUPPPPPPPPPPPPPPPPPPPPPPPPPPPPPPPPPPPP",
"5ucRPGGGGGGGGGGGGGGGGGGGGGGGGGGGGGGGGGGGGGGGGGPTzt,>>5pGPLGGGGGGGGGGGGGGGGGGGGGGGGGGGGGGGGGGGGGGSS",
"5unQPSCCAAAAAAAAAAAAAAAAAAAAAAAAAAAAAAAAAAAAASPRby2>>5aLYHSAAAAAAAAAAAAAAAAAAAAAAAAAAAAAAAAAAAACCC",
"7unQPSCCAAAAAAAAAAAAAAAAAAAAAAAAAAAAAAAAACCCAGPEby2>>5aLYLSACCAAAAAAAAAAAAAAAAAAAAAAAAAAAAAAAAACCV",
"7uMQPGCCAAAAAAAAAAAAAAAAAAAAAAAAAAAAAAAAACCCAGPQnu2>>5aLYLSACCCAAAAAAAAAAAAAAAAAAAAAAAAAAAAAAAACCV",
"5unQPGCCAAAAAAAAAAAAAAAAAAAAAAAAAAAAAAAAACCCAGPRby2>>5aLYLSACCAAAAAAAAAAAAAAAAAAAAAAAAAAAAAAAAACCV",
"5ubQPSCCAAAAASSSSSSSSSSSSSSSSSSSSGSSSSAAAAAAASPRcy2>>5aHPHSAAAAAASSSSSSSSSSSSSSSSSSSSSSSSSSAAAACCC",
"5ubQPSCCAAAASSSSSSSSSSSSSSSSSSSSSSSSSSSAAAAAASPRcy<>>5aGPHSSAAAAASSSSSSSSSSSSSSSSSSSSSSSSSSAAAACCC",
"5ubQPSCCAAASGGSSSSSSSSSSSSSSSSSSSSSSSSSSAAAAASPRcy<>>5aGPHSSAAASSSSSSSSSSSGSSSSSSSSSSSSSSSSSSAACCC",
"5ubQPSCCAASSSGSSSSSSSSSGSGSSSSSSSSSSSSSGSAAAASPRcy<>>5aLUHSSAASSSSSSSSSSSSGSGSSSSSSSSSSSSSSSSSACCC",
"5ubQPSCCAASSSSSSSSSSSSSSSSSSSSSSGSSSSSSSSAAAASPRcy2>>5aLUHSSAASSSGSSSSSSSSSSSSSSSSSSSSGSSSSSSSACCC",
"5ubQPSCCAASSSSSSSSSSSSSSSSSSSSSSSSSSSSSSSAAAASPRcy2>>5aLUHSSAASSSSSSSSSSSSSSSSSSSSSSSSSSSSSSSSACCC",
"5ubQPGCCAASSSSSSSSSSSSSSSSSSSSSSSSSSSGSSSAAAASPRcy2>>5aLUHSSAASSSSSSSSSSSSGSGSSSSSSSSSSSSSGSSSACCC",
"5ubQPGCCAASSSSSSSSSSSSSSSSSSSSSSSSSSGGSSSAAAASPRcy2>>5aLUHSSAASSSSSSSSSSSSSSGSSSSSSSSSSSSSGSSSACCC",
"5ubQPGCCAASSSGSSSSSGSSGSSSSGSSSSSSSSSSSSSAAAASPRcy2>>5aLUHSSAASSGSSSSSGSSSSSSSSSSSSSSSSSSSSSSSACCC",
"5ubQPGCCAASSSSSSSSSSSSGSSSGGSGSSSSSGSSSSSAAAASPRcy2>>5aLUHSSAASSGSSSSSGSSSSSSSSSSSSGGSSSSSSSSSACCC",
"5unQPSCCAASSSSSSSSGGSSSSSSSSSSSSSSSSSSSSSAAAASPRcy2>>5aLUHSSAASSSSSSGGSSSSSSSSSSSSSSSSSSSSSGSSACCC",
"5unQPSCCAASSSSSSSSSSSSSSSSSSSSSSSSSSSSSSSAAAASPRcy2>>5aLUHSSAASSSSSSSSSSSSSSSSSSGGSSSSGGSSSSSSACCC",
"5ubQPSCCAASSSSSSSSSSSSSSSSSSGGSSSSSSSSSSSAAAASPRcy2>>5aLUHSSAASSSSSSSSSSSSSSSGGSSSSSSSSSSSSSSSACCC",
"5ubQPSCCAASSSSSSSSSSSSSGGSSSSSSSSSSSSSSSSAAAASPRcy2>>5aLUHSSAASSSSSSSSSSGGSSSSSSSSSSSSSSSSSSSSACCC",
"5ubQPGCCAASSSSSSSSSSSGGSSSGSSSSSSSSSSSSGGAAAASPRcy2>>5aLUHSSAASSGSSSSGSSSSSSSSSSSGSSSSSSSSSSSSACCC",
"5ubQPGCCAASSSSSSSSGGSSSSSSGSSSSSSSGGSSSSSAAAASPRcy2>>5aLUHSSAASSGSSSSSSSSSSGSSSSSSSSGGSSSSSSSSACCC",
"5ubQPGCCAASSSGSSSSSSSSSSSSSSSSSSSSSSSSSSSAAAASPRcy2>>5aLUHSSAASSSSSSSSSSSSSGSSGSSSSSSSSSSSSSSSACCC",
"5ubQPGCCAASSSGSSSSSSSSSSSSSSGSSSSSSSSSSSSAAAASPRcy2>>5aLUHSSAASSSSSSSSSSSSSSSSSSSSSSSSSSSSSGSSACCC",
"5ubQPSCCAASSSGGSSSSSSSSSSSSSGSSSSGGSGSSSSAAAASPRcy2>>5aLUHSSAASSSSSSSSSSSSSGSSSSSSSSSSSSSSSGSSACCC",
"5ubQPSCCAASSSSSSSSSSSSSSSSSSSSSSSSSSSSSSSAAAASPRcy2>>5aLUHSSAASSSSSSSGSSSSSGSSSSSSSSSSSSSSSSSSACCC",
"5ubQPSCCAASSSSSSSSGSSSSSSSSSSSSSSSSSSSSSSAAAASPRcy2>>5aLUHSSAASSSGSSSGSSSSSSSSSGGSSSSGSSSSSSSSACCC",
"5ubQPSCCAASSSSSSSSGSSSSGSSGSSSSSSSSSSSSSSAAAASPRcy2>>5aLUHSSAASSSGSSSSSSSSSSSSSGGSSSSGSSSSSSSSACCC",
"5unQPGCCAASSSSSSSSSSSSSSSSSSSSGGSSSSSSSSSAAAASPRcy2>>5aLUHSSAASSSSGGSSSSSSSGSSSSSSSSSSGSSSSSSSACCC",
"5unQPSCCAASSSSSSSSSSGSSSGGSSSSSSSSSSSSSSSAAAASPRcy2>>5aLUHSSAASSSSSSSSSSSSSGSSSSSGGSSSSSSSSGSSACCC",
"5ubQPSCCAASSSSSSSGSSGSSSSSSSSSSSGSSSSGGSSAAAASPRcy2>>5aLUHSSAASSSSSSSSSSSSSSSSSSSSSSSSSSSSSSSSACCC",
"5ubQPSCCAASSSSSSSGSSSSSSSSSSSSSSSSSSSSGSSAAAASPRcy2>>5aLUHSSAASSSSSSSSSSSSSSSSSSSSSSSSGSSSSSSSACCC",
"5ubQPSCCAASSSSSSSSSSGSSSSSSSSSSSSSSSSSSSSAAAASPRcy2>>5aLUHSSAASSSSSSGSSSSSGSSSSSSSSSSSSSSSSGSSACCC",
"5ubQPSCCAASSSSSSSSSSGSSSSGSSSSGGSSSSSSSSSAAAASPRcy2>>5aLUHSSAASSSSSSSSSSSSGSGSSSSSSSSSSSSSSSSSACCC",
"5ubQPGCCAAASSSSSSSSSSSSSSSSSSSSSSSSSSSSSSAAAASPRcy<>>5aHUHSSAAASSSGSSSSSSSSSSSSSSSSGSSSSSSSSSAACCC",
"5ubQPGCCAAAASSSSGSSSSSSSSSSSSSSSSSSSSSSAAAAAASPRcy<>>5aHUHSSAAAASSGSSSSSSSSSSSSSSSSGSSSSSSSSAAACCC",
"5ubQPGCCAAAAASSSSSSSSSSSSSSSSSSSSSSSSSAAAAAAASPRcy2>>5aHUHSSAAAAASSSSSSSSSSSSSSSSSSSSSSSSSSAAAACCC",
"5unQPGCCAAAAAAAAAAAAAAAAAAAAAAAAAAAAAAAAAAAAASPRby2>>5aHUHSAAAAAAAAAAAAAAAAAAAAAAAAAAAAAAAAAAAACCC"
};
